<?xml version="1.0" standalone="no"?>
<!DOCTYPE svg PUBLIC "-//W3C//DTD SVG 20010904//EN"
 "http://www.w3.org/TR/2001/REC-SVG-20010904/DTD/svg10.dtd">
<svg version="1.0" xmlns="http://www.w3.org/2000/svg"
 width="2048.000000pt" height="2048.000000pt" viewBox="0 0 2048.000000 2048.000000"
 preserveAspectRatio="xMidYMid meet">

<g transform="translate(0.000000,2048.000000) scale(0.100000,-0.100000)"
fill="#000000" stroke="none">
<path d="M6212 18069 c-60 -30 -86 -70 -90 -144 -3 -50 0 -66 20 -95 31 -46
77 -76 129 -84 57 -9 139 30 170 81 94 152 -66 322 -229 242z"/>
<path d="M8170 17820 c-6 -11 -8 -20 -6 -20 3 0 10 9 16 20 6 11 8 20 6 20 -3
0 -10 -9 -16 -20z"/>
<path d="M8116 17726 c-38 -58 -193 -211 -281 -276 -33 -25 -62 -48 -65 -51
-21 -27 -232 -154 -355 -214 -229 -112 -438 -179 -710 -226 -158 -28 -505 -35
-645 -14 -52 8 -117 14 -143 15 -45 0 -52 -3 -97 -50 -53 -55 -67 -94 -55
-157 18 -101 155 -417 250 -579 66 -112 305 -476 325 -494 7 -6 184 -276 227
-345 17 -27 68 -111 114 -185 121 -198 289 -447 319 -470 3 -3 43 -52 89 -110
45 -58 90 -114 99 -125 9 -11 32 -40 51 -65 51 -66 53 -68 51 -40 -1 14 -2 89
-1 168 l1 142 30 0 c16 0 125 24 242 54 484 124 919 171 1355 147 304 -17 491
-49 832 -143 561 -154 1194 -436 1611 -719 350 -237 777 -654 1071 -1044 521
-692 866 -1535 978 -2395 56 -427 58 -885 5 -1310 -101 -809 -413 -1593 -897
-2250 -243 -329 -597 -684 -927 -927 -977 -720 -2192 -1001 -3377 -782 -84 16
-113 25 -115 37 -2 13 -13 16 -49 13 -26 -1 -65 3 -88 9 -56 15 -128 15 -146
0 -19 -16 -211 3 -364 36 l-24 5 7 552 c4 304 9 599 11 657 3 58 7 290 11 515
3 226 8 426 9 445 2 19 3 52 4 73 0 21 5 36 9 33 5 -3 49 -10 98 -16 49 -6
104 -13 122 -16 31 -5 33 -4 22 15 -8 15 -21 21 -48 22 -20 0 -68 7 -107 14
l-70 14 60 -5 c33 -3 79 -8 102 -10 l43 -5 -12 28 c-31 69 -110 200 -164 268
-17 22 -36 50 -42 61 -7 13 -17 181 -27 415 -62 1599 -61 1577 -90 1609 -9 10
-14 24 -10 30 4 6 -2 21 -13 33 -10 12 -50 103 -87 202 -134 360 -174 445
-479 1035 -440 850 -496 945 -928 1568 -317 458 -380 541 -609 797 -74 83
-163 186 -199 230 -90 111 -183 220 -245 285 -30 32 -55 69 -59 87 -8 37 -56
82 -96 89 -34 7 -69 60 -225 339 -117 210 -159 275 -170 263 -9 -9 35 -109
167 -380 l121 -246 -21 -44 c-19 -39 -23 -89 -46 -518 -15 -261 -28 -515 -31
-565 -3 -49 -17 -297 -30 -550 -14 -253 -27 -503 -30 -555 -3 -52 -14 -261
-25 -465 -11 -203 -22 -408 -25 -455 -3 -47 -12 -236 -20 -420 -8 -184 -17
-344 -20 -355 -2 -11 -39 -85 -83 -165 -142 -263 -491 -944 -546 -1066 -106
-236 -162 -444 -173 -635 l-6 -116 39 -11 39 -11 -37 5 c-30 4 -38 2 -38 -10
0 -10 20 -21 58 -31 31 -9 65 -20 74 -25 10 -6 28 -10 40 -10 13 -1 34 -7 48
-15 35 -20 62 -19 58 3 -2 9 -19 23 -38 29 l-35 13 37 -5 c36 -3 59 7 40 19
-5 3 -5 33 1 68 9 63 33 125 44 114 4 -3 12 -1 20 6 11 9 19 6 38 -14 21 -23
23 -32 19 -106 -2 -45 0 -83 5 -86 5 -3 6 -16 4 -30 -4 -18 0 -25 14 -29 17
-4 17 -5 0 -6 -28 -2 -3 -38 30 -44 16 -3 41 -8 57 -12 31 -6 55 13 33 28 -7
5 -3 6 10 2 16 -4 23 -1 28 15 3 11 10 20 14 20 5 0 14 14 21 30 7 17 16 30
21 30 5 0 9 7 9 15 0 8 4 15 9 15 9 0 6 -170 -3 -237 -2 -12 1 -20 5 -17 14 8
11 -130 -16 -830 -21 -558 -23 -652 -11 -670 8 -12 55 -68 106 -124 64 -72 93
-112 93 -130 2 -36 -14 -432 -18 -451 -1 -9 -6 -104 -10 -211 -3 -107 -8 -206
-10 -220 -2 -14 -6 -108 -10 -210 -3 -102 -8 -201 -10 -220 -2 -19 -7 -120
-11 -225 -3 -104 -8 -198 -9 -207 -2 -10 -7 -72 -11 -139 -5 -96 -11 -125 -24
-138 -10 -9 -63 -54 -119 -101 -57 -47 -106 -92 -110 -100 -11 -23 14 -881 27
-911 11 -28 66 -79 84 -79 7 0 37 -22 68 -49 110 -96 256 -193 380 -253 158
-77 277 -128 297 -128 8 0 56 44 107 97 l93 97 54 -21 c30 -11 133 -51 229
-88 1420 -542 2944 -727 4440 -539 1101 138 2163 487 3103 1021 1076 610 1985
1465 2624 2468 938 1472 1289 3196 1007 4935 -229 1406 -885 2775 -1869 3900
-526 602 -1097 1099 -1783 1554 -1152 763 -2433 1249 -3831 1451 -96 14 -177
27 -179 30 -3 3 -10 15 -17 27 -8 18 -19 23 -44 21 -19 -1 -37 -7 -41 -13 -6
-9 -45 -6 -161 14 -94 16 -204 28 -282 30 l-128 3 -33 -51z m5491 -8898 c-3
-7 -5 -2 -5 12 0 14 2 19 5 13 2 -7 2 -19 0 -25z m-10 -50 c-3 -7 -5 -2 -5 12
0 14 2 19 5 13 2 -7 2 -19 0 -25z m-17 -83 c-6 -31 -14 -54 -17 -52 -3 3 1 31
8 61 7 31 14 54 16 52 3 -2 -1 -30 -7 -61z m-23 -87 c-3 -8 -6 -5 -6 6 -1 11
2 17 5 13 3 -3 4 -12 1 -19z m-10 -40 c-3 -8 -6 -5 -6 6 -1 11 2 17 5 13 3 -3
4 -12 1 -19z m-9912 -138 c50 -19 50 -19 10 -13 -22 3 -51 12 -65 19 -37 19
-3 15 55 -6z m375 -106 c0 -2 -12 -4 -26 -4 -14 0 -23 4 -20 9 6 8 46 4 46 -5z"/>
<path d="M7911 11384 c0 -11 3 -14 6 -6 3 7 2 16 -1 19 -3 4 -6 -2 -5 -13z"/>
</g>
</svg>
